<svg id="Calque_1" xmlns="http://www.w3.org/2000/svg" viewBox="0 0 606 188.9"><style>.st0,.st1{fill:#fff}</style><path class="st0" d="M-.2-.4h9.3v63.2h31v8.4H-.2V-.4zm48.4 47.7v-3.7c0-11.8 8.4-25 23.4-25 14.6 0 21.6 11 21.6 22.6v5.4h-36v.7c0 9 5.4 16.7 15.6 16.7 6.5 0 11.1-3 14.3-7.5l4.6 5.6c-4 6.1-9.9 10-19.6 10-15.4 0-23.9-11.9-23.9-24.8zm9.3-7.3H84v-1.6c0-6.3-4.6-12.2-11.9-12.2-8.5 0-13.4 6.4-14.6 13.8zm86.6-3.3c-.1 8.4-7.3 16.3-19.7 16.3-3.3 0-6.2-.5-8.8-1.6-2.5 1.2-4 3.4-4 5.7 0 3 2.1 4.5 5 4.5l16.1-.1c10.8 0 15.2 4.7 15.2 12.2 0 10.7-8.9 18.6-23.3 18.6-14.1 0-21.2-6.1-21.2-14.2 0-4.1 2.2-7.7 5.6-10.3-3.6-2-5.8-5.6-5.8-9.6 0-4.5 2.4-8.1 6.5-10.4-3.2-3-5-6.9-5-10.8v-1.1c0-8.8 7.4-17.3 19.6-17.3 5.5 0 10 1.7 13.3 4.3 2.6-3.1 5.9-4.3 11.4-4.3V26c-3.2 0-5.3.6-7 2.3 1.3 2.3 1.9 5 2 7.5v.9zm-27.5 32.6c-1.9 1.7-4.3 4.5-4.3 7.8 0 4.3 3.8 7.5 12.3 7.5 9 0 14.1-4.2 14.1-10.2 0-3.1-1.7-5.2-6.4-5.2l-15.7.1zM135 35.5c0-4.7-4-9.3-10.7-9.3s-10.7 4.6-10.7 9.3v.9c0 4.7 4 9.3 10.7 9.3 6.8 0 10.7-4.7 10.7-9.4v-.8zm20.6 23.6v-.5h9.1v.4c0 2.7 3.7 5.5 10 5.5 6.2 0 9.7-2.5 9.7-7 0-4-2.4-6.3-10-8.1l-3.6-.9c-10.3-2.1-14.3-7.1-14.3-14.8 0-7.6 6.6-15.1 18.7-15.1 10.4 0 17.6 5.9 17.6 12.6v.4h-8.4v-.3c0-2.4-3.3-5.1-9.2-5.1-6.4 0-9.8 3.5-9.8 7.1 0 3.7 2 6.1 9.2 7.8l3.6 1.1c10.4 2.2 15.2 7 15.2 14.7 0 10-7.8 15.3-18.8 15.3-12-.1-19-6.6-19-13.1z"/><path class="st1" d="M89.8 162.1l-6.6-7.6c-5.4 7.6-13.3 12.4-23.5 12.4-12.7 0-19-7.9-19-16.7 0-11.5 9.9-17.8 18.8-23l-1.7-2c-4.7-5.7-8.2-11.3-8.2-16.9 0-8.1 5.7-13.5 15.1-13.5 8.7 0 13.9 4.7 13.9 12.1 0 8.8-5.8 13.6-17.1 20.6L83 152.4c4.7-7.3 7.2-17 7.2-27.1h1.4c0 10.5-2.6 20.6-7.7 28.2l6.9 7.8c3.3 3.7 5.5 4.1 9.9 4.1h1.1v1.4h-1.2c-4.9 0-7.2-.7-10.8-4.7zm-7.5-8.5l-22.2-25.3c-11 6.2-18.1 12.4-18.1 21.9 0 8 5.8 15.5 17.6 15.5 9.8 0 17.5-4.7 22.7-12.1zm-23.7-29.1l1.9 2.2c11-6.8 16.6-11.3 16.6-19.5 0-6.6-4.7-11-12.6-11-8.5 0-13.7 5-13.7 12.2 0 5.2 3.4 10.7 7.8 16.1z"/><path class="st0" d="M176 132.2c-.1 8.3-7.3 16.2-19.7 16.2-3.3 0-6.2-.5-8.8-1.6-2.5 1.2-4 3.4-4 5.7 0 3 2.1 4.5 5 4.5l16.1-.1c10.8 0 15.2 4.7 15.2 12.2 0 10.7-8.9 18.6-23.3 18.6-14.1 0-21.2-6.1-21.2-14.2 0-4.1 2.2-7.7 5.6-10.3-3.6-2-5.8-5.6-5.8-9.6 0-4.5 2.4-8.1 6.5-10.4-3.2-3-5-6.9-5-10.8v-1.1c0-8.8 7.4-17.3 19.6-17.3 5.5 0 10 1.7 13.3 4.3 2.6-3.1 5.9-4.3 11.4-4.3v7.4c-3.2 0-5.3.6-7 2.3 1.3 2.3 1.9 5 2 7.5v1zm-27.6 32.6c-1.9 1.7-4.3 4.5-4.3 7.8 0 4.3 3.8 7.5 12.3 7.5 9 0 14.1-4.2 14.1-10.2 0-3.1-1.7-5.2-6.4-5.2l-15.7.1zm18.5-33.9c0-4.7-4-9.3-10.7-9.3s-10.7 4.6-10.7 9.3v.9c0 4.7 4 9.3 10.7 9.3 6.8 0 10.7-4.7 10.7-9.4v-.8zm20.6 11.8V139c0-11.8 8.4-25 23.4-25 14.6 0 21.6 11 21.6 22.6v5.4h-36.1v.7c0 9 5.4 16.7 15.6 16.7 6.5 0 11.1-3 14.3-7.5l4.6 5.6c-4 6.1-9.9 10-19.6 10-15.4 0-23.8-11.8-23.8-24.8zm9.2-7.3h26.5v-1.6c0-6.3-4.6-12.2-11.9-12.2-8.4 0-13.4 6.4-14.6 13.8zm20-40.8l7.8 4.4-10 11.3h-9.1l11.3-15.7zm28.9 20.3h7.8v11.6c4.4-7.7 10.9-12.3 19-12.3 10.5 0 15.3 6.8 15.3 17.6v34.9H279V133c0-6.3-2.3-10-8.1-10-7.5 0-13.9 6.2-16.7 14.7v29h-8.7v-51.8zm54.5 27.8V139c0-11.8 8.4-25 23.4-25 14.6 0 21.6 11 21.6 22.6v5.4H309v.7c0 9 5.4 16.7 15.6 16.7 6.5 0 11.1-3 14.3-7.5l4.6 5.6c-4 6.1-9.9 10-19.6 10-15.3 0-23.8-11.8-23.8-24.8zm9.3-7.3h26.5v-1.6c0-6.3-4.6-12.2-11.9-12.2-8.5 0-13.4 6.4-14.6 13.8zm19.9-40.8l7.8 4.4-10 11.3H318l11.3-15.7zm37.6 44.5v27.5h-8.7v-51.8h7.8v12.9c4.3-9.2 9.9-13.6 17.7-13.6 1.4 0 2.6.2 3.7.4l-.5 9.4c-.9-.2-2.1-.3-3.3-.3-8.3.1-13.4 5.5-16.7 15.5zm26.9 2.9v-2.4c0-13.1 9.1-25.5 24.6-25.5 15.4 0 24.5 12.4 24.5 25.5v2.4c0 13.1-9.2 25.5-24.6 25.5-15.5 0-24.5-12.4-24.5-25.5zm40.1.1v-2.6c0-9-6-17.3-15.5-17.3-9.6 0-15.6 8.3-15.6 17.3v2.6c0 9 5.9 17.3 15.5 17.3 9.5 0 15.6-8.4 15.6-17.3zm18.5 12.4v-.5h9.1v.4c0 2.7 3.7 5.5 10 5.5 6.2 0 9.7-2.5 9.7-7 0-4-2.4-6.3-10-8.1l-3.6-.9c-10.3-2.1-14.3-7.1-14.3-14.8 0-7.6 6.6-15.1 18.7-15.1 10.4 0 17.6 5.9 17.6 12.6v.4h-8.4v-.3c0-2.4-3.3-5.1-9.2-5.1-6.4 0-9.8 3.5-9.8 7.1 0 3.7 2 6.1 9.2 7.8l3.6 1.1c10.4 2.2 15.2 7 15.2 14.7 0 10-7.8 15.3-18.8 15.3-12-.1-19-6.5-19-13.1zm49.1-54.3c0-3.3 2.4-5.3 5.6-5.3 3.3 0 5.5 2 5.5 5.3 0 3.2-2.5 5.2-5.6 5.2-3.3 0-5.5-1.9-5.5-5.2zm1.2 14.7h8.8v51.8h-8.8v-51.8zm33.9 0h16.2v7.8h-16.2v27c0 6.9 2.2 9.5 7.3 9.5 4.9 0 8.2-1.6 10.8-3.2l.2 8.3c-2.5 1.6-6.8 3.2-12.1 3.2-9 0-14.8-4.5-14.8-17.8v-27h-6.5v-7.8h6.5v-11h8.7v11zm25.2 27.8V139c0-11.8 8.4-25 23.4-25 14.6 0 21.6 11 21.6 22.6v5.4h-36.1v.7c0 9 5.4 16.7 15.6 16.7 6.5 0 11.1-3 14.3-7.5l4.6 5.6c-4 6.1-9.9 10-19.6 10-15.3 0-23.8-11.8-23.8-24.8zm9.3-7.3h26.5v-1.6c0-6.3-4.6-12.2-11.9-12.2-8.5 0-13.4 6.4-14.6 13.8zm20-40.8l7.8 4.4-10 11.3h-9.1l11.3-15.7z"/></svg>